<svg width="805" height="391" viewBox="0 0 805 391" fill="none" xmlns="http://www.w3.org/2000/svg">
<rect y="0.908203" width="805" height="390" fill="#A9C2BE"/>
<path d="M0 0.908203V60.5484M0 390.908V324.398M143.091 0.908203V60.5484M143.091 390.908V324.398M284.273 0.908203V192.108M284.273 390.908V324.398M428 0.908203V124.866M428 390.908V324.398M0 60.5484H143.091M0 60.5484V124.866M143.091 60.5484V192.108M0 124.866V257.887M0 124.866H72.4993M428 124.866V257.887M428 124.866H212.41M0 257.887H72.4993M0 257.887V324.398M428 257.887H212.41M428 257.887V324.398M143.091 192.108H284.273M143.091 192.108V324.398M284.273 192.108V324.398M212.41 0.908203V124.866M212.41 124.866H72.4993M72.4993 124.866V257.887M72.4993 257.887H212.41M0 324.398H143.091M212.41 257.887V390.908M284.273 324.398H428" stroke="#5A5A5A" stroke-opacity="0.2"/>
</svg>
